<svg xmlns="http://www.w3.org/2000/svg" width="24" height="24"><rect id="backgroundrect" width="100%" height="100%" x="0" y="0" fill="none" stroke="none" class="" style=""/><g class="currentLayer" style=""><title>Layer 1</title><path fill="none" d="M0,0 h24 v24 H0 V0 z" id="svg_1" class=""/><path d="M22,13 h-8 v-2 h8 v2 zm0,-6 h-8 v2 h8 V7 zm-8,10 h8 v-2 h-8 v2 zm-2,-8 v6 c0,1.1 -0.9,2 -2,2 H4 c-1.1,0 -2,-0.9 -2,-2 V9 c0,-1.1 0.9,-2 2,-2 h6 c1.1,0 2,0.9 2,2 zm-1.5,6 l-2.25,-3 l-1.75,2.26 l-1.25,-1.51 L3.5,15 h7 z" id="svg_2" class="" fill="#ffffff" fill-opacity="1"/></g></svg>